<?xml version="1.0" encoding="utf-8"?>
<!-- Generator: Adobe Illustrator 16.0.1, SVG Export Plug-In . SVG Version: 6.00 Build 0)  -->
<!DOCTYPE svg PUBLIC "-//W3C//DTD SVG 1.1//EN" "http://www.w3.org/Graphics/SVG/1.1/DTD/svg11.dtd">
<svg version="1.1" id="Слой_1" xmlns="http://www.w3.org/2000/svg" xmlns:xlink="http://www.w3.org/1999/xlink" x="0px" y="0px"
	 width="283.465px" height="283.465px" viewBox="0 0 283.465 283.465" enable-background="new 0 0 283.465 283.465"
	 xml:space="preserve">
<g>
	<g>
		<defs>
			<rect id="SVGID_1_" width="283.465" height="283.465"/>
		</defs>
		<clipPath id="SVGID_2_">
			<use xlink:href="#SVGID_1_"  overflow="visible"/>
		</clipPath>
		<path clip-path="url(#SVGID_2_)" fill="#FF9300" d="M0.301,233.035c2.169,10.854,9.155,27.464,29.852,46.351
			c5.119,4.672,12.707,5.415,18.611,1.789c14.33-8.8,42.934-24.777,70.655-30.938c39.147-8.699,71.769-17.398,78.293-21.748
			s31.534-54.369,34.796-65.243l3.486-14.646H202c-2.293,4.075-18.959,37.749-24.949,40.744c-6.524,3.263-28.271,8.699-33.709-3.263
			c-5.438-11.961,2.175-17.398,28.271-28.272c26.099-10.874,48.934-26.097,40.234-46.758c-7.457-17.708-39.35-10.651-66.94,7.478
			c-10.533,6.92-22.269,11.791-34.468,14.959c-15.23,3.953-33.925,9.596-38.865,14.537c-6.145,6.144-15.394,22.882-16.879,29.857
			c-1.832,8.6-10.504,13.335-16.988,19.273c-4.762,4.359-16.288,12.022-29.445,19.114C2.213,219.527-1.045,226.298,0.301,233.035"/>
	</g>
	<g>
		<defs>
			<rect id="SVGID_3_" width="283.465" height="283.465"/>
		</defs>
		<clipPath id="SVGID_4_">
			<use xlink:href="#SVGID_3_"  overflow="visible"/>
		</clipPath>
		<path clip-path="url(#SVGID_4_)" fill="#211C1C" d="M108.517,126.076c12.021-3.119,22.853-7.813,32.188-13.946
			c18.08-11.88,37.575-18.974,52.147-18.974h0.004c12.744,0.002,21.992,5.302,26.044,14.924c3.211,7.626,3.323,15.195,0.333,22.494
			c-1.578,3.852-4.023,7.563-7.347,11.158h57.405c7.827,0,14.173-6.345,14.173-14.173V14.173C283.465,6.346,277.118,0,269.291,0
			H14.173C6.345,0-0.001,6.346-0.001,14.173v113.386c0,7.828,6.346,14.173,14.174,14.173h52.912
			C69.926,139.215,77.8,134.05,108.517,126.076"/>
	</g>
	<g>
		<defs>
			<rect id="SVGID_5_" width="283.465" height="283.465"/>
		</defs>
		<clipPath id="SVGID_6_">
			<use xlink:href="#SVGID_5_"  overflow="visible"/>
		</clipPath>
		<path clip-path="url(#SVGID_6_)" fill="#FFFFFF" d="M28.343,131.074h64.82c4.126-1.242,8.876-2.575,14.354-3.998
			c12.021-3.119,22.853-7.813,32.189-13.946c18.08-11.88,37.575-18.974,52.147-18.974h0.004c12.743,0,21.992,5.302,26.044,14.925
			c3.139,7.45,3.308,14.849,0.523,21.993h34.697c0-10.959,8.884-19.842,19.843-19.842V32.5c-10.959,0-19.843-8.885-19.843-19.844
			H28.343C28.343,23.615,19.459,32.5,8.5,32.5v78.732C19.459,111.234,28.343,120.115,28.343,131.074"/>
	</g>
	<g>
		<defs>
			<rect id="SVGID_7_" width="283.465" height="283.465"/>
		</defs>
		<clipPath id="SVGID_8_">
			<use xlink:href="#SVGID_7_"  overflow="visible"/>
		</clipPath>
		<path clip-path="url(#SVGID_8_)" fill="#211C1C" d="M141.733,28.076c-25.528,0-46.222,20.695-46.222,46.224
			c0,21.087,14.126,38.862,33.427,44.414c4.142-1.967,8.075-4.158,11.769-6.584c14.459-9.5,29.814-15.927,42.842-18.125
			c2.821-5.979,4.407-12.655,4.407-19.705C187.955,48.771,167.261,28.076,141.733,28.076"/>
	</g>
</g>
</svg>
