<?xml version="1.0" encoding="utf-8"?>
<!-- Generator: Adobe Illustrator 16.0.1, SVG Export Plug-In . SVG Version: 6.00 Build 0)  -->
<!DOCTYPE svg PUBLIC "-//W3C//DTD SVG 1.1//EN" "http://www.w3.org/Graphics/SVG/1.1/DTD/svg11.dtd">
<svg version="1.1" id="Слой_1" xmlns="http://www.w3.org/2000/svg" xmlns:xlink="http://www.w3.org/1999/xlink" x="0px" y="0px"
	 width="500.224px" height="540.096px" viewBox="0 0 500.224 540.096" enable-background="new 0 0 500.224 540.096"
	 xml:space="preserve">
<g>
	
	<path fill-rule="evenodd" clip-rule="evenodd" fill="#333333" d="M29.126,540.096c-0.827-1.546-2.553-1.355-3.859-1.889
		c-12.964-5.301-21.536-18.886-17.727-32.173c8.101-28.263,16.317-56.645,35.582-80.081c25.168-30.617,57.325-48.441,96.571-53.676
		c2.748-0.367,4.255,0.814,5.972,2.557c13.202,13.393,28.329,23.806,46.86,28.173c29.546,6.962,55.176-1.542,77.864-20.716
		c1.4-1.183,3.078-2.226,4.029-3.715c4.512-7.068,10.832-6.558,17.881-5.105c56.479,11.632,94.15,44.766,113.467,98.936
		c3.348,9.389,6.367,18.896,9.43,28.385c5.844,18.1-2.963,33.959-21.381,38.666c-0.268,0.068-0.461,0.42-0.689,0.639
		C271.792,540.096,150.46,540.096,29.126,540.096z"/>
	<path fill-rule="evenodd" clip-rule="evenodd" fill="#FEA100" d="M158.126,0.096c6.249,2.814,8.654,7.656,8.217,14.434
		c-0.353,5.477,0.06,10.998-0.128,16.491c-0.089,2.607,0.834,3.807,3.283,4.671c4.222,1.49,8.387,3.23,12.377,5.258
		c2.22,1.127,3.49,0.788,5.103-0.921c4.345-4.604,8.806-9.104,13.329-13.534c5.246-5.14,11.575-5.182,16.76,0.002
		c9.075,9.07,18.079,18.213,27.009,27.428c5.596,5.774,5.543,11.815-0.002,17.604c-4.033,4.213-8.057,8.446-12.317,12.423
		c-2.277,2.126-2.84,3.875-1.299,6.809c1.986,3.783,3.304,7.919,5.059,12.275c-3.979,0.733-7.263-0.66-10.621-0.908
		c-8.155-0.603-16.319-0.956-24.444,0.067c-3.266,0.411-4.942-0.604-6.786-3.374c-14.095-21.183-33.78-32.658-59.455-32.643
		C97.958,66.2,66.491,96.889,65.166,133.207c-0.943,25.839,8.837,46.672,29.49,62.277c1.993,1.507,2.711,2.842,2.13,5.388
		c-2.304,10.093-3.379,20.367-3.515,30.706c-0.044,3.379-0.645,4.828-3.99,2.724c-2.831-1.779-4.703-0.709-6.76,1.557
		c-4.029,4.438-8.288,8.677-12.592,12.854c-5.13,4.979-11.331,5.075-16.418,0.012c-9.33-9.285-18.523-18.712-27.65-28.197
		c-4.965-5.16-4.962-11.249-0.078-16.481c4.206-4.505,8.542-8.898,12.997-13.157c2.078-1.985,2.77-3.609,1.253-6.418
		c-1.963-3.637-3.614-7.531-4.746-11.501c-0.929-3.26-2.596-4.017-5.697-3.865c-4.987,0.245-10.018-0.232-14.989,0.139
		c-6.792,0.507-11.551-2.051-14.474-8.146c0-15.667,0-31.333,0-47c1.746-6.751,4.823-9.163,12.051-9.282
		c5.326-0.088,10.656-0.113,15.979,0.011c3.257,0.076,5.372-0.966,6.324-4.293c0.914-3.196,2.208-6.294,3.682-9.273
		c1.406-2.843,0.817-5.024-1.365-7.156c-3.571-3.49-7.134-6.993-10.581-10.606c-6.675-6.995-6.83-12.864-0.738-20.225
		C33.78,43.241,43.425,34.52,52.645,25.394c5.209-5.157,12.543-4.989,17.991-0.023c4.182,3.812,8.108,7.899,12.04,11.969
		c2.291,2.371,4.587,3.031,7.534,1.303c1.861-1.092,3.86-1.949,5.89-2.716c6.714-2.535,6.711-2.544,6.723-9.51
		c0.007-4.494-0.07-8.99,0.025-13.483c0.159-7.429,2.45-10.548,9.279-12.837C127.46,0.096,142.793,0.096,158.126,0.096z"/>
	<path fill-rule="evenodd" clip-rule="evenodd" fill="#FEA100" d="M500.126,362.096c-3.043,6.691-8.148,9.549-15.545,9.042
		c-5.639-0.387-11.33,0.079-16.986-0.141c-2.932-0.114-4.48,0.684-5.33,3.671c-1.041,3.658-2.182,7.479-4.219,10.618
		c-3.045,4.691-1.623,7.666,2.076,10.966c4.217,3.763,8.049,7.966,11.959,12.063c5.666,5.937,5.65,12.622-0.117,18.562
		c-9.516,9.801-19.121,19.516-28.682,29.271c-1.887,1.926-3.932,3.526-6.629,4.25c-4.1,1.099-6.801,0.418-8.461-4.154
		c-6.939-19.111-17.098-36.429-30.408-51.796c-2.527-2.918-2.326-3.958,0.709-6.246c44.352-33.437,40.152-101.051-7.977-128.114
		c-17.971-10.105-37.033-12.261-56.891-6.288c-1.393,0.418-2.809,0.755-4.367,1.171c-0.688-4.448,0.545-8.512,0.887-12.613
		c1.635-19.574,0.455-38.937-4.307-58.001c-0.738-2.955,0.406-3.985,2.598-4.826c2.363-0.906,4.859-1.059,7.373-1.056
		c12.326,0.01,24.654-0.039,36.982,0.018c10.861,0.051,15.203,4.411,15.229,15.138c0.016,6.33,0.115,12.664-0.053,18.989
		c-0.064,2.431,0.832,3.562,3.061,4.253c2.691,0.835,5.322,1.897,7.908,3.027c9.055,3.961,9.041,3.987,16.205-3.26
		c3.395-3.437,6.697-6.973,10.217-10.276c5.078-4.766,11.641-4.879,16.578,0.012c10.297,10.198,20.48,20.517,30.512,30.976
		c5.322,5.55,5.146,12.229-0.164,17.849c-4.803,5.085-9.732,10.057-14.746,14.934c-1.695,1.649-1.947,2.927-0.895,5.137
		c2.213,4.642,4.186,9.426,5.846,14.292c0.879,2.572,2.236,3.26,4.736,3.197c5.494-0.14,11.018,0.277,16.486-0.122
		c7.355-0.536,12.963,1.717,16.414,8.46C500.126,328.096,500.126,345.096,500.126,362.096z"/>
	<path fill-rule="evenodd" clip-rule="evenodd" fill="#333333" d="M304.077,243.37c-1.219,33.439-11.793,70.913-36.938,103.495
		c-4.795,6.215-10.301,11.784-16.497,16.629c-26.129,20.432-54.851,19.69-79.914-2.198c-20.431-17.843-32.75-40.864-40.977-66.203
		c-10.528-32.428-14.211-65.488-4.454-98.705c10.127-34.476,32.007-58.172,67.873-66.113c43.405-9.61,84.699,13.265,101.857,55.223
		C301.163,200.499,304.245,217.689,304.077,243.37z"/>
	<path fill-rule="evenodd" clip-rule="evenodd" fill="#FEA100" d="M300.003,346.72c8.662-14.638,15.545-29.902,20.469-46.022
		c0.484-1.59,1.357-3.148,1.449-4.757c0.457-7.984,5.855-11.091,12.428-13.585c38.037-14.437,78.549,15.046,77.088,56.271
		c-0.711,20.079-9.809,35.563-26.221,46.925c-2.049,1.418-3.65,2.231-6.068,0.125c-22.035-19.182-47.375-31.837-75.963-37.953
		C302.22,347.517,301.292,347.131,300.003,346.72z"/>
	<path fill-rule="evenodd" clip-rule="evenodd" fill="#FEA100" d="M102.752,178.691c-16.405-12.646-23.483-34.144-18.2-54.426
		c5.504-21.131,21.873-36.357,42.411-39.326c19.594-2.832,35.594,3.765,48.412,18.63c1.628,1.889,2.266,2.849-0.947,3.938
		c-34.386,11.665-57.057,35.444-70.48,68.675C103.638,176.949,103.237,177.68,102.752,178.691z"/>
	<path fill-rule="evenodd" clip-rule="evenodd" fill="#FEA306" d="M269.743,116.249c-7.449-4.159-14.979-7.028-23.206-9.791
		C262.214,104.236,270.222,107.685,269.743,116.249z"/>
</g>
</svg>
