<?xml version="1.0" encoding="utf-8"?>
<!-- Generator: Adobe Illustrator 16.0.1, SVG Export Plug-In . SVG Version: 6.00 Build 0)  -->
<!DOCTYPE svg PUBLIC "-//W3C//DTD SVG 1.1//EN" "http://www.w3.org/Graphics/SVG/1.1/DTD/svg11.dtd">
<svg version="1.1" id="Слой_1" xmlns="http://www.w3.org/2000/svg" xmlns:xlink="http://www.w3.org/1999/xlink" x="0px" y="0px"
	 width="227.307px" height="208.655px" viewBox="0 0 227.307 208.655" enable-background="new 0 0 227.307 208.655"
	 xml:space="preserve">
<g>
	<defs>
		<rect id="SVGID_1_" width="227.307" height="208.655"/>
	</defs>
	<clipPath id="SVGID_2_">
		<use xlink:href="#SVGID_1_"  overflow="visible"/>
	</clipPath>
	<path clip-path="url(#SVGID_2_)" fill="#333333" d="M104.329,49.809c-30.11,0-54.518,24.407-54.518,54.519
		c0,30.11,24.408,54.517,54.518,54.517c30.109,0,54.516-24.407,54.516-54.517C158.845,74.216,134.438,49.809,104.329,49.809
		 M104.329,59.947c3.31,0,5.993,2.684,5.993,5.995c0,3.31-2.683,5.994-5.993,5.994c-3.311,0-5.996-2.684-5.996-5.994
		C98.333,62.631,101.018,59.947,104.329,59.947 M66.61,109.653c-3.311,0-5.996-2.684-5.996-5.994c0-3.311,2.685-5.996,5.996-5.996
		s5.994,2.685,5.994,5.996C72.604,106.969,69.921,109.653,66.61,109.653 M104.329,147.37c-3.311,0-5.996-2.685-5.996-5.995
		s2.685-5.993,5.996-5.993c3.31,0,5.993,2.683,5.993,5.993S107.638,147.37,104.329,147.37 M104.329,125.609
		c-11.756,0-21.281-9.53-21.281-21.281c0-11.752,9.525-21.282,21.281-21.282c11.752,0,21.281,9.53,21.281,21.282
		C125.609,116.079,116.081,125.609,104.329,125.609 M142.043,109.653c-3.311,0-5.994-2.684-5.994-5.994
		c0-3.311,2.684-5.996,5.994-5.996c3.312,0,5.994,2.685,5.994,5.996C148.037,106.969,145.354,109.653,142.043,109.653"/>
	<path clip-path="url(#SVGID_2_)" fill="#333333" d="M164.363,127.487c-9.318,24.075-32.71,41.202-60.036,41.202
		c-35.49,0-64.364-28.872-64.364-64.362s28.874-64.363,64.364-64.363c15.758,0,30.204,5.701,41.403,15.137l19.505-35.397
		C148.084,7.324,127.051,0,104.328,0C46.801,0,0,46.801,0,104.327c0,57.527,46.801,104.328,104.328,104.328
		c43.749,0,81.27-27.081,96.746-65.352L164.363,127.487z"/>
	<path clip-path="url(#SVGID_2_)" fill="#FFA200" d="M227.307,97.001c0-34.804-17.146-65.66-43.418-84.623L156.37,65.624
		c8.048,10.803,12.813,24.196,12.813,38.704c0,3.036-0.225,6.02-0.629,8.946l51.173,22.703
		C224.598,123.926,227.307,110.776,227.307,97.001"/>
</g>
</svg>
