<?xml version="1.0" encoding="utf-8"?>
<!-- Generator: Adobe Illustrator 16.0.1, SVG Export Plug-In . SVG Version: 6.00 Build 0)  -->
<!DOCTYPE svg PUBLIC "-//W3C//DTD SVG 1.1//EN" "http://www.w3.org/Graphics/SVG/1.1/DTD/svg11.dtd">
<svg version="1.1" id="Слой_1" xmlns="http://www.w3.org/2000/svg" xmlns:xlink="http://www.w3.org/1999/xlink" x="0px" y="0px"
	 width="200px" height="129px" viewBox="0 0 200 129" enable-background="new 0 0 200 129" xml:space="preserve">
<g>
	<g>
		<path fill-rule="evenodd" clip-rule="evenodd" fill="#333333" d="M1,109C1,74.167,1.047,39.333,0.916,4.5
			C0.904,1.517,1.517,0.906,4.5,0.916C43,1.043,81.5,1,120,1c2.955,1.298,4.074,3.606,4.079,6.773
			c0.055,32.16,0.11,64.32-0.062,96.479c-0.032,6.116-2.769,8.697-9.056,8.778c-14.495,0.186-28.994,0.151-43.49,0.016
			c-5.924-0.055-7.793-1.635-9.631-7.433C57.653,92.401,45.76,86.82,32.938,91.966c-6.146,2.466-9.089,7.41-11.02,13.351
			c-2.293,7.055-11.372,10.505-18.05,7.042C2.417,111.606,1.809,110.243,1,109z"/>
		<path fill-rule="evenodd" clip-rule="evenodd" fill="#FEFEFE" d="M1,109c4.95,3.596,10.503,2.021,15.785,1.496
			c2.459-0.244,2.349-3.336,2.873-5.365c3.763-14.59,19.117-21.708,32.625-15.003c6.352,3.154,10.428,8.324,11.611,15.295
			c0.744,4.38,2.834,5.703,7.086,5.65c14.979-0.188,29.962-0.174,44.941-0.011c4.361,0.047,6.439-1.3,6.426-5.95
			c-0.089-32.791-0.063-65.583-0.015-98.375C122.336,4.414,121.762,2.514,120,1c26,0,52,0.041,78-0.065
			c2.5-0.01,3.08,0.564,3.066,3.065C200.949,24.666,201,45.333,201,66c-2.894,0.8-4.191-1.403-5.68-3.106
			c-9.079-10.39-17.904-20.998-26.83-31.519c-2.486-2.931-5.09-4.438-8.934-4.358c-6.985,0.145-13.977-0.021-20.965,0.062
			c-5.752,0.068-6.486,0.713-6.504,6.253c-0.074,23.129-0.064,46.257,0.006,69.386c0.007,2.415-0.408,5.303,3.084,5.917
			c3.6,0.633,5.041-1.594,5.938-4.616c4.73-15.966,21.457-20.425,32.166-16.781c7.568,2.575,13.22,7.17,15.793,14.771
			c1.951,5.767,2.899,7.794,10.033,6.472c0.664-0.122,1.299,0.207,1.893,0.521c0,6.167-0.121,12.337,0.066,18.498
			c0.065,2.158-0.415,2.6-2.567,2.567C188.668,129.917,178.834,130,169,130c-0.139-3.285,3.042-3.583,4.768-5.094
			c4.605-4.03,7.181-8.853,5.996-14.979c-1.124-5.819-4.759-9.803-10.404-11.75c-6.037-2.083-13.098,0.497-16.566,5.937
			c-4.141,6.493-3.203,13.722,2.238,19.628c1.788,1.941,5.174,2.717,4.969,6.259c-38,0-76,0-114,0
			c-0.207-2.835,2.409-3.247,3.964-4.491c9.066-7.251,8.916-20.317-0.357-25.87c-6.696-4.01-15.217-2.196-19.962,4.249
			c-4.531,6.154-3.133,15.484,2.948,20.736c1.743,1.505,4.771,2.098,4.407,5.376c-12,0-24,0-36,0C1,123,1,116,1,109z"/>
		<path fill-rule="evenodd" clip-rule="evenodd" fill="#FEA100" d="M201,109c-6.625,4.343-11.051,2.775-13.084-4.632
			c-2.681-9.771-11.748-16.301-22.557-16.243c-11.059,0.059-19.971,6.705-22.344,17.033c-0.844,3.679-1.998,6.075-6.412,5.913
			c-5.654-0.206-6.594-0.882-6.598-6.724c-0.014-24.297,0.07-48.593-0.071-72.889c-0.027-4.68,1.546-6.661,6.371-6.523
			c8.313,0.235,16.644,0.224,24.958-0.013c3.373-0.096,5.551,1.151,7.645,3.622C179.535,41.09,190.29,53.525,201,66
			C201,80.333,201,94.667,201,109z"/>
		<path fill-rule="evenodd" clip-rule="evenodd" fill="#333333" d="M37,130c-6.415-3.607-11.708-8.029-12.051-16.182
			c-0.389-9.278,5.283-16.592,14.188-18.205c8.12-1.47,16.437,3.806,18.823,11.941c2.52,8.587-1.539,17.489-9.6,21.171
			c-0.804,0.367-2.121-0.145-2.36,1.274C43,130,40,130,37,130z"/>
		<path fill-rule="evenodd" clip-rule="evenodd" fill="#333333" d="M160,130c-4.398-2.901-8.812-5.758-10.76-11.075
			c-3.254-8.882,0.995-18.827,9.606-22.329c8.514-3.461,18.298,0.704,21.847,9.3c3.662,8.87-0.516,19.204-9.235,22.913
			c-0.833,0.354-2.093-0.131-2.458,1.191C166,130,163,130,160,130z"/>
		<path fill-rule="evenodd" clip-rule="evenodd" fill="#FEFEFE" d="M159.328,60.997c-5.146,0.002-10.295-0.076-15.439,0.027
			c-3.931,0.078-5.873-1.609-5.829-5.617c0.062-5.644,0.04-11.289,0.007-16.934c-0.021-3.691,1.688-5.578,5.443-5.471
			c0.166,0.005,0.332,0.003,0.498-0.003c17.467-0.55,17.467-0.55,28.705,12.813c2.137,2.54,4.254,5.097,6.418,7.615
			c1.23,1.432,2.358,2.899,1.514,4.904c-0.898,2.135-2.719,2.689-4.879,2.676C170.287,60.972,164.808,60.996,159.328,60.997z"/>
		<path fill-rule="evenodd" clip-rule="evenodd" fill="#F8F8F8" d="M41.394,107.753c3.381,0.037,5.174,1.895,5.25,4.86
			c0.077,3.01-1.828,5.08-4.887,5.066c-2.733-0.012-4.619-1.711-4.779-4.639C36.804,109.893,38.46,108.159,41.394,107.753z"/>
		<path fill-rule="evenodd" clip-rule="evenodd" fill="#F8F8F8" d="M164.869,107.741c3.156,0.142,5.014,1.79,5.079,4.889
			c0.065,3.133-1.901,5.014-4.899,5.05c-2.799,0.034-4.684-1.875-4.83-4.654C160.061,110.015,161.727,108.1,164.869,107.741z"/>
	</g>
</g>
</svg>
