<?xml version="1.0" encoding="utf-8"?>
<!-- Generator: Adobe Illustrator 16.0.1, SVG Export Plug-In . SVG Version: 6.00 Build 0)  -->
<!DOCTYPE svg PUBLIC "-//W3C//DTD SVG 1.1//EN" "http://www.w3.org/Graphics/SVG/1.1/DTD/svg11.dtd">
<svg version="1.1" id="Слой_1" xmlns="http://www.w3.org/2000/svg" xmlns:xlink="http://www.w3.org/1999/xlink" x="0px" y="0px"
	 width="200px" height="181px" viewBox="0 0 200 181" enable-background="new 0 0 200 181" xml:space="preserve">
<g>
	<g>
		<path fill-rule="evenodd" clip-rule="evenodd" fill="#FEFEFE" d="M181,1c5.666,0,11.339,0.148,16.998-0.068
			c2.514-0.096,3.077,0.568,3.067,3.068C200.96,30.5,201,57,201,83.5c0,14.167,0,28.333,0,42.5c-3.092-0.192-4.18-3.004-5.984-4.766
			c-7.465-7.293-9.523-7.381-16.785-0.159c-0.473,0.47-0.945,0.938-1.414,1.413c-4.846,4.906-5.652,4.693-11.099,1.974
			c-14.876-7.427-32.472-0.21-39.318,15.658c-6.442,14.931,1.253,32.745,16.63,38.731c1.797,0.7,4.536,0.198,4.971,3.148
			c-49,0-98,0-147,0c0-5.667,0-11.333,0-17c0.695-0.094,1.431,0.003,1.834,0.545c4.228,5.688,10.231,5.95,16.603,5.924
			c30.331-0.125,60.663-0.026,90.994-0.128c1.948-0.006,5.052,1.493,5.634-1.954c0.482-2.847-3.287-8.141-5.619-8.588
			c-1.809-0.348-3.656-0.207-5.488-0.207c-26.665-0.007-53.33-0.003-79.994-0.006c-1.833,0-3.666-0.033-5.499-0.071
			c-3.837-0.08-5.847-1.931-5.958-5.822c-0.047-1.666-0.092-3.331-0.092-4.998c-0.004-32.831-0.003-65.662-0.001-98.493
			c0-1.167-0.016-2.334,0.029-3.5c0.227-5.901,1.283-7.018,7.057-7.243c3.33-0.13,6.666-0.044,9.999-0.044
			c45.497-0.002,90.994-0.009,136.491,0.004c10.177,0.003,10.586,0.431,10.595,10.785c0.012,16.166-0.039,32.332,0.068,48.497
			c0.011,1.667-1.293,4.33,1.906,4.776c3.398,0.474,7.317-1.934,7.715-4.621c0.244-1.651,0.137-3.328,0.137-4.994
			c0.004-25.331-0.061-50.663,0.048-75.994c0.026-6.182-0.144-12.068-5.906-16.038C181,2.449,180.906,1.696,181,1z"/>
		<path fill-rule="evenodd" clip-rule="evenodd" fill="#333333" d="M181,1c6.139,3.068,8.275,7.9,8.197,14.835
			c-0.314,27.989-0.172,55.983-0.074,83.976c0.012,3.23-0.149,5.437-4.301,5.11c-3.059-0.241-5.617,1.722-8.898,3.238
			c-0.1-2.009-0.255-3.714-0.256-5.419c-0.018-18.662-0.102-37.324,0.065-55.984c0.033-3.715-0.651-5.12-4.831-5.106
			c-50.652,0.16-101.306,0.138-151.958,0.028c-3.452-0.007-4.47,0.843-4.457,4.39c0.133,36.157,0.141,72.314-0.008,108.471
			c-0.016,3.727,0.9,4.699,4.66,4.679c30.324-0.164,60.65-0.026,90.974-0.183c3.438-0.018,4.98,0.878,5.785,4.262
			c0.75,3.155,2.361,6.105,3.789,9.628c-1.891,0-3.482,0-5.076,0c-32.824,0-65.65-0.132-98.473,0.107
			C9.291,173.082,4.244,171.084,1,165C1,113,1,61,1,9c0.848-4.485,3.515-7.151,8-8C66.333,1,123.666,1,181,1z"/>
		<path fill-rule="evenodd" clip-rule="evenodd" fill="#FEA100" d="M148,182c-1.199-1.406-3.048-1.149-4.566-1.692
			c-16.782-5.994-25.188-24.827-18.235-41.091c7.124-16.662,26.567-23.768,42.448-15.124c3.297,1.795,4.839,1.144,6.971-1.252
			C185.965,110.096,188.791,111.543,201,126c0,1.667,0,3.333,0,5c-1.16,5.845-5.82,9.123-9.691,12.889
			c-3.56,3.462-5.961,6.979-6.552,12.313c-1.182,10.662-7.627,18.152-16.696,23.565c-2.842,1.696-6.141,1.102-9.061,2.233
			C155.334,182,151.666,182,148,182z"/>
		<path fill-rule="evenodd" clip-rule="evenodd" fill="#FEFEFE" d="M159,182c4.85-2.029,9.938-3.525,14.025-7.124
			c6.698-5.897,10.662-13.161,10.879-22.119c0.067-2.798,1.111-4.576,2.916-6.465c4.802-5.024,10.379-9.341,14.18-15.292
			c0,16-0.064,32.001,0.066,47.999c0.021,2.503-0.563,3.097-3.067,3.068C185.001,181.922,172,182,159,182z"/>
		<path fill-rule="evenodd" clip-rule="evenodd" fill="#F7F7F7" d="M9,1C5.61,2.943,2.927,5.594,1,9c0-2.667,0-5.333,0-8
			C3.667,1,6.333,1,9,1z"/>
		<path fill-rule="evenodd" clip-rule="evenodd" fill="#FDA101" d="M42.799,86.223c2.053-6.029,3.673-10.506,5.083-15.049
			c0.642-2.068,1.493-3.851,3.83-3.965c2.449-0.119,3.365,1.872,4.021,3.782c1.584,4.614,3.052,9.27,4.98,15.174
			c1.998-5.813,3.637-10.43,5.161-15.084c0.788-2.408,1.85-4.636,4.812-3.592c2.848,1.005,2.569,3.315,1.701,5.813
			c-2.609,7.5-5.011,15.072-7.586,22.584c-0.685,1.998-1.305,4.298-4.226,4.079c-2.495-0.188-3.093-2.062-3.74-4.033
			c-1.481-4.516-3.082-8.992-5.072-14.751c-1.926,5.829-3.375,10.431-4.983,14.976c-0.65,1.838-1.299,3.893-3.938,3.815
			c-2.514-0.073-3.235-1.844-3.903-3.832c-2.53-7.532-5.172-15.025-7.671-22.567c-0.794-2.396-1.568-5.197,1.84-6.183
			c3.027-0.874,3.993,1.631,4.761,3.878C39.408,75.776,40.858,80.316,42.799,86.223z"/>
		<path fill-rule="evenodd" clip-rule="evenodd" fill="#FDA101" d="M104.06,86.101c1.957-5.826,3.498-10.286,4.947-14.776
			c0.761-2.354,1.747-4.748,4.688-3.93c3.362,0.937,2.66,3.731,1.853,6.178c-2.539,7.687-5.125,15.357-7.742,23.018
			c-0.604,1.771-1.445,3.369-3.751,3.391c-2.313,0.021-3.183-1.563-3.79-3.336c-1.603-4.676-3.115-9.383-4.895-14.779
			c-2.774,4.853-3.622,9.728-5.347,14.248c-0.737,1.931-1.379,3.789-3.9,3.855c-2.598,0.068-3.325-1.897-3.966-3.785
			c-2.555-7.519-5.006-15.072-7.552-22.594c-0.861-2.546-1.48-5.21,1.779-6.182c2.896-0.863,3.915,1.42,4.676,3.859
			c1.41,4.519,3.045,8.967,5.05,14.788c1.91-5.646,3.441-10.02,4.861-14.429c0.686-2.129,1.364-4.347,4.007-4.412
			c2.676-0.066,3.39,2.081,4.081,4.255C100.48,75.944,102.084,80.361,104.06,86.101z"/>
		<path fill-rule="evenodd" clip-rule="evenodd" fill="#FDA101" d="M147.371,86.229c1.824-5.621,3.293-10.343,4.902-15.016
			c0.768-2.229,1.78-4.741,4.81-3.831c2.941,0.885,2.716,3.282,1.881,5.72c-2.68,7.819-5.337,15.647-7.95,23.489
			c-0.627,1.884-1.518,3.29-3.729,3.383c-2.364,0.1-3.099-1.581-3.71-3.352c-1.652-4.793-3.262-9.602-5.203-15.334
			c-1.924,5.487-3.603,10.115-5.156,14.784c-0.661,1.987-1.318,3.781-3.834,3.901c-2.668,0.128-3.28-1.911-3.92-3.777
			c-2.68-7.814-5.178-15.693-7.98-23.463c-0.934-2.591-0.408-4.396,1.949-5.265c2.64-0.972,3.869,0.86,4.637,3.147
			c1.67,4.972,3.41,9.92,5.354,15.55c1.866-5.648,3.463-10.52,5.089-15.38c0.603-1.802,1.499-3.521,3.649-3.57
			c2.381-0.054,3.321,1.651,3.99,3.73C143.707,75.797,145.433,80.595,147.371,86.229z"/>
		<path fill-rule="evenodd" clip-rule="evenodd" fill="#FAFAFA" d="M136.901,22.387c0.015,5.412-1.132,6.637-6.228,6.648
			c-5.162,0.012-6.396-1.234-6.414-6.483c-0.02-5.333,1.195-6.623,6.248-6.634C135.742,15.907,136.887,17.066,136.901,22.387z"/>
		<path fill-rule="evenodd" clip-rule="evenodd" fill="#FBFBFB" d="M163.1,22.66c-0.043-5.505,1.037-6.692,6.126-6.741
			c5.165-0.049,6.526,1.268,6.577,6.358c0.054,5.271-1.264,6.706-6.196,6.757C164.376,29.088,163.14,27.876,163.1,22.66z"/>
		<path fill-rule="evenodd" clip-rule="evenodd" fill="#FEFEFE" d="M156.205,22.479c-0.002,5.555-0.955,6.366-6.205,6.605
			c-4.906,0.224-6.243-2.091-6.252-6.618c-0.009-4.554,1.383-6.816,6.266-6.596C155.287,16.109,156.208,16.892,156.205,22.479z"/>
		<path fill-rule="evenodd" clip-rule="evenodd" fill="#FEFEFD" d="M192.826,127.927c-0.34,2.028-1.428,3.067-2.484,4.129
			c-8.907,8.946-17.855,17.853-26.693,26.866c-2.455,2.505-4.532,2.919-7.104,0.192c-3.759-3.986-7.625-7.88-11.595-11.657
			c-2.788-2.653-2.027-4.703,0.348-7.126c2.475-2.524,4.461-2.735,7.163-0.22c2.577,2.399,4.495,7.147,8.005,6.494
			c2.849-0.53,5.086-4.449,7.553-6.908c5.177-5.159,10.314-10.358,15.493-15.516c1.305-1.299,2.731-2.758,4.743-1.45
			C190.342,124.088,192.164,125.771,192.826,127.927z"/>
	</g>
</g>
</svg>
