<?xml version="1.0" encoding="utf-8"?>
<!-- Generator: Adobe Illustrator 16.0.1, SVG Export Plug-In . SVG Version: 6.00 Build 0)  -->
<!DOCTYPE svg PUBLIC "-//W3C//DTD SVG 1.1//EN" "http://www.w3.org/Graphics/SVG/1.1/DTD/svg11.dtd">
<svg version="1.1" id="Слой_1" xmlns="http://www.w3.org/2000/svg" xmlns:xlink="http://www.w3.org/1999/xlink" x="0px" y="0px"
	 width="200px" height="177px" viewBox="0 0 200 177" enable-background="new 0 0 200 177" xml:space="preserve">
<g>
	<g>
		<path fill-rule="evenodd" clip-rule="evenodd" fill="#333333" d="M114,1c7,0,14,0,21,0c5.602,1.237,11.514,0.925,16.717,4.126
			c8.941,5.501,13.625,13.412,14.268,23.78c0.195,3.154,0.081,6.328,0.038,9.492c-0.073,5.495,0.768,10.688,2.325,16.095
			c3.063,10.633,2.297,20.398-5.169,30.437c-6.104,8.205-13.633,16.985-13.187,28.814c0.171,4.538,1.967,7.464,6.153,9.283
			c8.709,3.785,17.048,8.35,25.565,12.538c1.494,0.735,2.926,1.59,4.369,2.422c9.986,5.763,15.066,14.243,14.418,25.923
			c-0.303,4.695,0.631,9.43-0.498,14.09c-50,0-100,0-150,0c-1.131-1.072-1.84-2.359-1.931-3.934
			c-0.872-15.157,2.05-29.281,18.235-37.945c8.067-4.318,16.197-8.526,24.12-13.108c6.511-3.766,9.267-12.153,5.238-18.717
			c-5.079-8.275-8.341-17.376-12.765-25.938c-3.847-7.445-2.793-16.077-0.868-23.96c1.203-4.928,2.006-9.696,1.937-14.697
			c-0.039-2.829-0.042-5.66,0.015-8.49c0.322-15.932,10.388-27.159,26.195-29.369C111.441,1.663,112.857,1.857,114,1z"/>
		<path fill-rule="evenodd" clip-rule="evenodd" fill="#FEFEFE" d="M114,1c-2.113,2.124-5.117,1.862-7.674,2.78
			C93.057,8.543,85.991,18.455,86.083,32.545c0.025,3.827-0.033,7.655,0.038,11.48c0.065,3.491-1.221,6.704-1.839,9.991
			c-1.711,9.104-4.039,18.67,2.699,27.12c0.796,0.999,1.33,2.295,1.692,3.538c1.875,6.451,4.921,12.338,8.706,17.823
			c1.207,1.75,1.496,3.483,1.804,5.488c1.445,9.414-2.14,15.311-11.063,18.994c-7.329,3.025-14.096,7.405-21.132,11.146
			c-11.195,5.951-16.644,15.31-16.719,27.923c-0.023,3.983-0.175,7.967-0.269,11.95c-1.667,0-3.333,0-5,0
			c-1.292-1.197-1.925-2.693-1.976-4.438c-0.507-17.379,3.691-32.424,20.399-41.317c7.498-3.991,14.761-8.471,22.494-11.958
			c6.841-3.085,7.983-8.864,4.674-14.905c-4.408-8.048-7.891-16.509-12.024-24.66c-4.696-9.264-3.591-19.528-0.889-29.277
			c2.021-7.29,0.933-14.55,1.163-21.824c0.048-1.528-1.061-2.192-2.439-2.747C58.982,19.854,36.428,32.3,33.292,50.716
			c-0.394,2.313-0.279,4.657-0.239,6.985c0.083,4.856-0.988,9.434-2.092,14.176c-1.629,6.997-2.151,14.239,1.813,21.28
			c3.663,6.508,6.854,13.229,11.097,19.464c4.635,6.812,2.304,15.627-4.557,20.077c-5.869,3.806-11.74,7.626-17.813,11.095
			c-10.029,5.728-15.354,13.929-14.516,25.773C7.193,172.486,7.597,175.65,5,178c-3.402,0.747-4.106-0.554-4.098-3.986
			C1.04,117.609,1.024,61.205,0.932,4.802C0.927,1.823,1.423,0.896,4.687,0.908C41.124,1.054,77.562,1,114,1z"/>
		<path fill-rule="evenodd" clip-rule="evenodd" fill="#FEA100" d="M5,178c-2.696-18.404,3.792-31.783,21.136-39.628
			c4.661-2.108,8.847-5.292,13.186-8.084c4.544-2.925,6.855-12.474,3.249-16.335c-6.301-6.748-9.502-15.238-13.405-23.163
			c-3.197-6.492-2.699-14.331,0.192-21.313c0.923-2.227,1.522-4.252,1.565-6.608c0.085-4.652-0.538-9.345,0.51-13.95
			C34.526,35.328,44.782,25.943,58.8,24.112c6.465-0.844,12.941-0.789,19.369,0.772c2.333,0.567,3.351,1.343,3.123,3.993
			c-0.327,3.805-0.088,7.658-0.085,11.49c0.002,4.47-1.036,8.723-1.885,13.096c-2.003,10.316-3.197,20.624,3.353,30.722
			c4.426,6.821,7.041,14.921,11.084,22.212c3.067,5.53,0.077,11.768-5.497,14.779c-7.758,4.191-15.471,8.469-23.275,12.572
			c-12.845,6.752-19.294,17.331-19.567,31.815C45.341,169.708,45.937,173.884,45,178C31.667,178,18.333,178,5,178z"/>
		<path fill-rule="evenodd" clip-rule="evenodd" fill="#FEFEFE" d="M200.152,162.979c-1.402-11.71-7.535-19.895-18.179-24.944
			c-9.292-4.409-18.403-9.197-27.693-13.61c-4.458-2.117-6.292-5.311-6.372-10.22c-0.091-5.611,0.327-10.723,4.385-15.205
			c2.059-2.274,3.295-5.361,4.634-8.207c1.815-3.858,3.041-7.954,7.073-10.424c1.801-1.103,2.969-3.327,3.039-5.534
			c0.256-8.021,2.492-16.269-2.258-23.812c-0.781-1.241-0.549-2.569-0.559-3.873c-0.035-4.326-0.049-8.653-0.001-12.979
			c0.19-17.344-7.47-27.242-24.259-31.646c-1.641-0.43-3.736,0.3-4.963-1.525c20.834,0,41.668,0.077,62.5-0.087
			c2.986-0.023,3.59,0.604,3.583,3.587C200.969,57.333,201,110.167,201,163C200.7,163.665,200.418,163.658,200.152,162.979z"/>
		<path fill-rule="evenodd" clip-rule="evenodd" fill="#E7E7E7" d="M200.152,162.979c0.283-0.03,0.566-0.022,0.848,0.021
			c0,4.5,0.02,9-0.023,13.5c-0.006,0.608,0.619,1.842-0.977,1.5C200.051,172.993,200.102,167.985,200.152,162.979z"/>
	</g>
</g>
</svg>
