<?xml version="1.0" encoding="utf-8"?>
<!-- Generator: Adobe Illustrator 16.0.1, SVG Export Plug-In . SVG Version: 6.00 Build 0)  -->
<!DOCTYPE svg PUBLIC "-//W3C//DTD SVG 1.1//EN" "http://www.w3.org/Graphics/SVG/1.1/DTD/svg11.dtd">
<svg version="1.1" id="Слой_1" xmlns="http://www.w3.org/2000/svg" xmlns:xlink="http://www.w3.org/1999/xlink" x="0px" y="0px"
	 width="149.387px" height="145.762px" viewBox="0 0 149.387 145.762" enable-background="new 0 0 149.387 145.762"
	 xml:space="preserve">
<path fill-rule="evenodd" clip-rule="evenodd" fill="#717171" d="M74.787,0c1.504,0.423,3.069,0.343,4.601,0.554
	c10.85,1.495,20.716,5.443,29.656,11.75c0.511,0.36,0.492,0.614,0.219,1.111c-3.938,7.171-7.863,14.349-11.759,21.542
	c-0.366,0.677-0.575,0.64-1.124,0.197c-6.941-5.607-14.858-8.716-23.787-9.192c-1.404-0.109-2.81-0.104-4.214-0.003
	c-12.461,0.811-22.525,6.2-30.324,15.897c-0.314,0.391-0.606,0.621-1.146,0.62c-9.296-0.016-18.593-0.011-27.889-0.015
	c-0.189,0-0.378-0.042-0.651-0.073c0.796-2.113,1.705-4.104,2.742-6.029c9.966-18.49,25.11-30.24,45.625-34.958
	c2.92-0.671,5.891-1.069,8.886-1.248C65.882,0.14,66.161,0.193,66.387,0C69.187,0,71.986,0,74.787,0z"/>
<path fill-rule="evenodd" clip-rule="evenodd" fill="#FEA100" d="M149.387,67.4c-0.461,1.36-0.386,2.797-0.574,4.195
	c-0.726,5.401-2.068,10.634-4.021,15.719c-0.2,0.521-0.369,0.636-0.908,0.394c-10.496-4.717-20.997-9.424-31.514-14.094
	c-0.827-0.367-0.6-0.922-0.538-1.47c0.677-6.081,0.061-12.026-1.838-17.84c-1.301-3.982-3.159-7.688-5.592-11.097
	c-0.373-0.523-0.455-0.912-0.145-1.516c5.635-10.943,11.248-21.898,16.848-32.859c0.302-0.591,0.479-0.818,1.124-0.324
	c14.227,10.919,23.005,25.159,26.177,42.831c0.389,2.165,0.656,4.344,0.792,6.54c0.011,0.188-0.043,0.41,0.188,0.522
	C149.387,61.4,149.387,64.4,149.387,67.4z"/>
<path fill-rule="evenodd" clip-rule="evenodd" fill="#333333" d="M81.604,76.085c0.31,0.306,0.169,0.695,0.169,1.043
	c0.008,22.524,0.002,45.048,0.024,67.573c0.001,0.797-0.142,1.062-1.012,1.061c-23.724-0.026-47.448-0.022-71.172-0.013
	c-0.664,0.001-1.065,0.013-1.064-0.907c0.028-30.987,0.024-61.975,0.025-92.963c0-0.233,0.015-0.466,0.022-0.699
	c0.05-0.043,0.1-0.086,0.15-0.13c0.476-0.213,0.981-0.137,1.475-0.138c7.441-0.007,14.882,0,22.323-0.007
	c2.299-0.1,4.598-0.085,6.896-0.017c5.352,0.06,10.706,0.029,16.058,0.006c1.044-0.005,1.836,0.271,2.556,1.041
	c1.316,1.407,2.712,2.741,4.078,4.1c0.639,0.676,1.297,1.336,1.957,1.995c5.397,5.385,10.61,10.953,16.073,16.275
	c0.405,0.396,0.801,0.801,1.255,1.142C81.59,75.627,81.749,75.813,81.604,76.085z"/>
<path fill-rule="evenodd" clip-rule="evenodd" fill="#333333" d="M81.604,76.085c-0.072-0.147-0.145-0.295-0.218-0.443
	c-0.017-0.435,0.274-0.736,0.469-1.079c2.868-5.053,2.755-10.041-0.506-14.847c-1.644-2.422-3.923-4.134-6.751-5.044
	c-0.404-0.13-0.861-0.158-1.156-0.536c-0.06-0.103-0.097-0.212-0.116-0.329c-0.063-2.777-0.021-5.553-0.024-8.326
	c-0.016-0.55,0.26-1.017,0.444-1.511c0.719-1.925-0.094-3.857-1.929-4.6c-1.834-0.743-3.753,0.095-4.568,1.99
	c-0.217,0.504-0.283,1.124-0.962,1.287c-5.018,0.097-10.033,0.02-15.05,0.042c-1.361,0.006-2.724,0.009-4.086-0.004
	c-0.391-0.004-0.811,0.058-1.108-0.304c3.221-3.375,7.063-5.832,11.358-7.583c20.361-8.3,43.3,4.242,47.406,25.904
	c3.224,17.005-5.961,33.697-21.884,39.771c-0.273,0.104-0.549,0.205-0.931,0.348c0-0.446,0-0.799,0-1.15
	c0-7.498,0.004-14.996-0.01-22.493C81.982,76.796,82.229,76.273,81.604,76.085z"/>
<path fill-rule="evenodd" clip-rule="evenodd" fill="#333333" d="M81.993,133.988c0-0.333,0-0.563,0-0.794
	c0-8.262,0.008-16.523-0.014-24.785c-0.002-0.65,0.129-0.962,0.813-1.188c12.169-4.03,20.736-12,25.792-23.753
	c0.338-0.785,0.573-0.955,1.41-0.585c7.231,3.193,14.485,6.337,21.742,9.472c0.578,0.25,0.844,0.401,0.526,1.114
	c-9.676,21.763-26.01,35.364-49.385,40.356c-0.13,0.027-0.258,0.065-0.389,0.091C82.36,133.94,82.229,133.955,81.993,133.988z"/>
<path fill-rule="evenodd" clip-rule="evenodd" fill="#333333" d="M5.192,82.602c-0.015,0.432-0.042,0.864-0.042,1.296
	c-0.002,17.359-0.011,34.718,0.02,52.078c0.002,0.952-0.203,1.294-1.191,1.201c-1.024-0.096-2.066-0.068-3.096-0.005
	c-0.733,0.045-0.959-0.235-0.86-0.908c0.02-0.13,0.003-0.266,0.003-0.399c0-30.653,0.006-61.306-0.026-91.959
	c-0.001-1.066,0.296-1.286,1.313-1.283c11.528,0.026,23.056,0.002,34.584-0.008c3.297-0.003,6.594-0.005,9.892-0.007
	c0.341-0.198,0.715-0.099,1.072-0.1c6.569-0.019,13.137,0.019,19.707-0.023c0.788-0.379,1.632-0.225,2.454-0.241
	c0.963-0.02,1.927-0.022,2.89,0.002c1.35,0.034,1.768,0.423,1.61,1.774c-0.219,1.891-0.107,3.78-0.128,5.669
	c-0.041,3.983,0.155,7.966,0.084,11.95c-0.006,0.364,0.024,0.732-0.082,1.085c-0.318,0.599-0.657,0.245-0.946-0.012
	c-0.622-0.553-1.189-1.165-1.779-1.752c-2.004-1.999-4-4.006-6.01-5.999c-1.984-2.036-4.017-4.024-6.021-6.041
	c-0.259-0.261-0.545-0.48-0.888-0.625c-0.107-0.037-0.21-0.077-0.316-0.115c-0.393-0.132-0.796-0.087-1.193-0.087
	c-4.63-0.002-9.26-0.006-13.89-0.001c-11.622,0.013-23.244-0.01-34.866,0c-0.333,0-0.666,0.001-0.999,0.007
	c-0.607,0.011-0.9,0.3-0.929,0.92c-0.052,1.131-0.096,2.262-0.077,3.395c-0.005,9.52,0.002,19.039-0.007,28.558
	C5.472,81.524,5.611,82.115,5.192,82.602z"/>
<path fill-rule="evenodd" clip-rule="evenodd" fill="#333333" d="M8.597,51.18c-0.424,0.291-0.209,0.728-0.209,1.087
	C8.375,65.191,8.376,78.115,8.376,91.039c0,0.361,0,0.721,0,1.082c-1.343-3.073-2.434-6.214-3.021-9.514
	c-0.125-0.356-0.064-0.726-0.064-1.088C5.288,71.839,5.288,62.16,5.289,52.481c-0.012-1.241,0.193-2.448,0.536-3.639
	c0.191-0.666,0.558-0.956,1.295-0.954c8.694,0.021,17.388,0.012,26.082,0.016c0.967,0,1.1,0.166,0.708,1.043
	c-0.344,0.771-0.489,1.692-1.366,2.129c-7.632,0.05-15.264,0.006-22.896,0.027c-0.358,0.001-0.734-0.104-1.074,0.104L8.597,51.18z"
	/>
<path fill-rule="evenodd" clip-rule="evenodd" fill="#CECECE" d="M5.351,52.39c0.012,3.257,0.035,6.515,0.034,9.772
	c-0.003,6.815-0.019,13.63-0.029,20.445c-0.055,0.001-0.109-0.001-0.163-0.005c-0.016-0.63-0.045-1.26-0.046-1.89
	c-0.003-9.075-0.002-18.15,0-27.226c0-0.364,0.034-0.727,0.052-1.091C5.246,52.308,5.297,52.302,5.351,52.39z"/>
<path fill-rule="evenodd" clip-rule="evenodd" fill="#C8C8C8" d="M66.593,42.586c-0.462,0.022-0.925,0.063-1.387,0.063
	c-6.108,0.004-12.218,0.003-18.326,0.001c-0.364,0-0.728-0.028-1.092-0.043c0.085-0.075,0.17-0.149,0.255-0.225
	c6.851,0.011,13.7,0.021,20.551,0.031c0.045,0.039,0.061,0.077,0.045,0.115S66.608,42.586,66.593,42.586z"/>
<path fill-rule="evenodd" clip-rule="evenodd" fill="#9E9E9E" d="M68.379,25.96c1.405-0.224,2.81-0.233,4.214,0.003
	C71.188,25.962,69.783,25.961,68.379,25.96z"/>
<path fill-rule="evenodd" clip-rule="evenodd" fill="#FEFEFE" d="M64.787,54.792c2.796,2.683,5.517,5.441,8.188,8.248
	c0.564-0.077,0.298-0.518,0.3-0.781c0.022-2.431,0.004-4.862,0.027-7.292c0.003-0.255-0.279-0.702,0.293-0.771
	c1.498,0.136,2.791,0.818,4.034,1.583c6.509,4.008,8.481,12.644,4.378,19.104c-0.175,0.275-0.302,0.598-0.621,0.758
	c-0.344,0-0.518-0.264-0.725-0.472C74.466,68.914,68.27,62.657,62.073,56.4c0.047-0.079,0.104-0.148,0.171-0.211
	c0.673-0.437,1.347-0.872,2.078-1.207C64.476,54.917,64.627,54.842,64.787,54.792z"/>
<path fill-rule="evenodd" clip-rule="evenodd" fill="#FEFEFE" d="M59.586,59.801c6.139,6.194,12.277,12.389,18.416,18.583
	c0.012,0.375-0.272,0.312-0.488,0.311c-5.043-0.026-10.088,0.068-15.129-0.046c-0.375-0.055-0.675-0.246-0.958-0.495
	c-3.188-2.8-4.791-6.377-4.895-10.562c-0.062-2.526,0.634-4.943,1.921-7.155c0.168-0.29,0.351-0.568,0.668-0.721
	C59.291,59.662,59.445,59.695,59.586,59.801z"/>
<path fill-rule="evenodd" clip-rule="evenodd" fill="#333333" d="M66.762,85.792c0.4,0.044,0.732,0.23,1.023,0.499
	c0.34,0.804,0.419,1.576-0.28,2.252c-0.415,0.346-0.905,0.36-1.413,0.36c-7.754-0.009-15.507,0.001-23.26-0.008
	c-1.317-0.449-1.708-1.664-2.245-2.748c-0.126-0.256,0.049-0.434,0.349-0.439c0.166-0.003,0.333-0.005,0.499-0.005
	c8.216,0,16.431,0,24.646,0.001C66.31,85.704,66.548,85.657,66.762,85.792z"/>
<path fill-rule="evenodd" clip-rule="evenodd" fill="#333333" d="M23.399,102.771c-0.524,0.19-0.524,0.19-0.701-0.765
	c-0.691-0.894-0.554-1.556,0.499-2.415l-0.023,0.015c0.308-0.19,0.649-0.1,0.974-0.1c6.645-0.005,13.289-0.007,19.933-0.003
	c1.601,0.448,2.704,1.646,3.933,2.645c0.3,0.243,0.254,0.535-0.231,0.547c-0.267,0.006-0.533,0.003-0.8,0.003
	c-7.498,0-14.996-0.001-22.494,0.004C24.125,102.702,23.754,102.633,23.399,102.771z"/>
<path fill-rule="evenodd" clip-rule="evenodd" fill="#FEFEFE" d="M24.353,130.233c-1.273,0.012-1.985-0.399-2.133-1.317
	c-0.148-0.924,0.17-1.632,1.128-1.939c0.286-0.129,0.589-0.073,0.883-0.071c4.907,0.021,9.813-0.054,14.718,0.035
	c1.555,0.395,2.866,1.35,4.351,1.913c0.554,0.21,1.114,0.433,1.627,0.732c0.228,0.134,0.719,0.23,0.329,0.694
	c-6.839,0.04-13.677,0.008-20.515,0.018C24.608,130.298,24.478,130.282,24.353,130.233z"/>
<path fill-rule="evenodd" clip-rule="evenodd" fill="#FDFDFD" d="M23.399,102.771c0.298-0.333,0.689-0.161,1.031-0.161
	c7.53-0.012,15.061-0.01,22.591-0.01c0.325,0,0.649,0,1.168,0c-1.432-1.082-2.714-2.05-3.995-3.018
	c-0.074-0.038-0.099-0.078-0.077-0.12c0.023-0.044,0.046-0.065,0.069-0.065c3.866,0.004,7.732,0.007,11.6,0.01
	c0.209,0.166,0.462,0.188,0.714,0.213c1.941,0.593,3.8,1.433,5.8,1.854c1.174,0.246,2.341,0.51,3.531,0.666
	c0.455,0.06,0.938,0.079,1.301,0.433c-0.294,0.175-0.611,0.225-0.953,0.225C51.918,102.785,37.659,102.778,23.399,102.771z"/>
<path fill-rule="evenodd" clip-rule="evenodd" fill="#FDFDFD" d="M5.351,52.39l-0.076-0.003l-0.076,0.009
	c-0.014-1.333-0.01-2.666-0.053-3.997c-0.016-0.495,0.164-0.661,0.629-0.602c0.164,0.021,0.333,0.003,0.5,0.003
	c16.866,0,33.732-0.002,50.598,0.016c0.367,0,0.865-0.313,1.128,0.252c-0.472,0.34-1.019,0.266-1.546,0.267
	c-4.363,0.006-8.727,0.048-13.089-0.023c-1.327-0.022-2.251,0.322-2.788,1.572c-0.168,0.392-0.406,0.766-0.721,1.074
	c-0.093,0.078-0.184,0.158-0.272,0.242c-2.332-0.004-4.664-0.008-6.996-0.012c-0.076-0.04-0.103-0.082-0.079-0.125
	c0.024-0.044,0.048-0.066,0.073-0.066c0.455-0.953,0.909-1.906,1.429-2.996c-0.361,0-0.639,0-0.916,0
	c-8.585,0-17.171,0.01-25.756-0.019c-0.734-0.002-1.042,0.204-1.188,0.921C5.914,50.07,5.464,51.191,5.351,52.39z"/>
<path fill-rule="evenodd" clip-rule="evenodd" fill="#333333" d="M23.01,85.994c0.129-0.066,0.258-0.132,0.388-0.198
	c1.418-0.217,2.845-0.061,4.268-0.087c1.661-0.031,3.324,0.019,4.985-0.019c0.721-0.017,1.256,0.224,1.535,0.864
	c0.324,0.745,1.119,1.358,0.712,2.329c-3.717,0.036-7.434,0.006-11.15,0.014c-0.196,0-0.401,0.033-0.574-0.104l0.023,0.016
	C21.989,87.819,21.932,86.952,23.01,85.994z"/>
<path fill-rule="evenodd" clip-rule="evenodd" fill="#FEFEFE" d="M34.978,88.785c-0.444-0.85-0.928-1.681-1.315-2.555
	c-0.227-0.513-0.604-0.428-0.987-0.428c-3.093-0.004-6.185-0.004-9.277-0.005c0.272-0.381,0.671-0.185,1.001-0.186
	c13.821-0.013,27.642-0.012,41.462-0.001c0.298,0,0.665-0.188,0.9,0.182c-8.66,0-17.319,0-26.174,0
	c0.733,1.131,1.29,2.203,2.188,3.048c0.076,0.029,0.102,0.059,0.078,0.091c-0.024,0.032-0.049,0.049-0.074,0.049
	c-2.596,0-5.191,0-7.787,0c-0.078-0.038-0.106-0.079-0.085-0.124C34.93,88.808,34.953,88.785,34.978,88.785z"/>
<path fill-rule="evenodd" clip-rule="evenodd" fill="#333333" d="M67.131,102.572c-3.464-0.234-6.76-1.153-9.965-2.442
	c-0.305-0.123-0.611-0.243-0.917-0.365c-0.02-0.427,0.314-0.253,0.488-0.254c3.227-0.012,6.453-0.004,9.68-0.012
	c0.802-0.002,1.311,0.374,1.577,1.112l-0.014-0.023c0.352,0.688-0.212,1.162-0.399,1.725
	C67.445,102.424,67.343,102.593,67.131,102.572z"/>
<path fill-rule="evenodd" clip-rule="evenodd" fill="#343434" d="M42.099,72.406c0.464,0.465,0.548,1.036,0.459,1.655
	c-0.604,0.946-1.479,1.231-2.567,1.15c-1.191-0.088-2.392,0.069-3.585-0.079c-0.793-0.885-0.887-1.919-0.643-3.026
	c0.274-0.258,0.618-0.203,0.946-0.204c1.064-0.003,2.13,0.032,3.193-0.012C40.695,71.859,41.417,72.022,42.099,72.406z"/>
<path fill-rule="evenodd" clip-rule="evenodd" fill="#989898" d="M22.207,114.417c0.158-0.948,0.84-1.286,1.681-1.409
	c0.293-0.043,0.598-0.012,0.897-0.012c13.617,0,27.233-0.001,40.851,0.006c0.388,0,0.801-0.121,1.164,0.132
	c0.074,0.129,0.058,0.246-0.047,0.352c-0.606,0.393-1.292,0.268-1.947,0.268c-13.233,0.008-26.467,0.005-39.7,0.008
	c-0.828,0-1.694-0.103-2.269,0.712C22.608,114.673,22.392,114.718,22.207,114.417z"/>
<path fill-rule="evenodd" clip-rule="evenodd" fill="#BABABA" d="M24.353,130.233c0.396-0.024,0.793-0.069,1.19-0.07
	c6.257-0.004,12.515-0.001,18.772-0.009c0.354-0.001,0.733,0.117,1.061-0.132c0.349-0.41,0.837-0.374,1.295-0.375
	c6.429-0.013,12.857-0.013,19.287-0.002c0.333,0,0.667,0.011,0.982,0.144c0.124,0.06,0.221,0.148,0.291,0.266
	c-0.465,0.356-1.02,0.256-1.533,0.256c-13.553,0.012-27.106,0.01-40.66,0.007C24.81,130.316,24.582,130.263,24.353,130.233z"/>
<path fill-rule="evenodd" clip-rule="evenodd" fill="#BBBBBB" d="M62.125,78.445c0.391,0.052,0.782,0.147,1.173,0.148
	c4.595,0.01,9.188,0.009,13.783,0.001c0.313,0,0.677,0.128,0.921-0.21c0.173,0.103,0.397,0.23,0.076,0.387
	c-0.163,0.08-0.393,0.028-0.592,0.028c-7.354,0.001-14.709-0.003-22.064,0.008c-0.56,0.001-0.921-0.018-0.919-0.765
	c0.025-7.621,0.017-15.242,0.021-22.863c0-0.093,0.033-0.187,0.018-0.102c1.637,1.533,3.341,3.129,5.045,4.724
	c-0.131,0.001-0.261,0.002-0.392,0.003c-0.514-0.053-0.805-0.444-1.133-0.766c-0.924-0.904-1.828-1.826-2.751-2.741
	c-0.301,0.264-0.188,0.548-0.188,0.792c-0.006,6.565-0.007,13.13-0.004,19.695c0.001,1.465,0.02,1.45,1.525,1.492
	C58.472,78.327,60.308,78.085,62.125,78.445z"/>
<path fill-rule="evenodd" clip-rule="evenodd" fill="#BABABA" d="M66.793,113.382c0.002-0.083,0.005-0.165,0.007-0.248
	c1.014,0.344,1.529,1.015,1.389,1.885c-0.152,0.945-0.77,1.439-1.692,1.563c-0.295,0.039-0.599,0.018-0.898,0.018
	c-13.658,0.001-27.317,0.002-40.976-0.004c-0.422,0-0.872,0.111-1.257-0.18c0.256-0.335,0.642-0.341,1.008-0.397
	c13.399,0.073,26.798,0.016,40.197,0.026c0.603,0.001,1.197-0.081,1.785-0.201c1.145-0.233,1.417-0.893,0.771-1.854
	C66.997,113.796,66.841,113.62,66.793,113.382z"/>
<path fill-rule="evenodd" clip-rule="evenodd" fill="#D5D5D5" d="M39.228,127.179c-0.439-0.178-0.898-0.182-1.363-0.182
	c-4.839-0.003-9.678-0.013-14.517-0.021c0.244-0.25,0.56-0.173,0.851-0.173c14.027-0.004,28.054-0.003,42.082-0.001
	c0.165,0,0.33,0.033,0.495,0.051c0.006,0.145-0.055,0.25-0.183,0.318c-0.467,0.231-0.973,0.185-1.468,0.186
	c-8.006,0.005-16.012-0.002-24.018,0.011C40.469,127.369,39.858,127.198,39.228,127.179z"/>
<path fill-rule="evenodd" clip-rule="evenodd" fill="#989898" d="M36.386,75c1.124-0.001,2.254-0.084,3.368,0.018
	c1.117,0.103,2.022-0.191,2.805-0.958c-0.216,0.938-0.925,1.313-1.766,1.316c-5.65,0.025-11.301,0.009-16.952,0
	c-0.088,0-0.176-0.077-0.264-0.119c-0.076-0.119-0.066-0.229,0.029-0.333c0.468-0.332,1.009-0.245,1.53-0.263
	c1.546-0.055,3.099,0.122,4.638-0.15c1.137,0.513,2.346,0.318,3.533,0.359C34.333,74.905,35.369,74.75,36.386,75z"/>
<path fill-rule="evenodd" clip-rule="evenodd" fill="#BABABA" d="M39.586,51.199c0.015-0.083,0.031-0.165,0.046-0.247
	c0.418-0.247,0.877-0.28,1.349-0.28c4.99,0.001,9.981,0.006,14.971-0.005c0.852-0.002,1.542,0.25,2.142,0.867
	c1.206,1.24,2.449,2.444,3.661,3.679c0.318,0.324,0.715,0.625,0.649,1.17c-0.11,0.005-0.221,0.011-0.331,0.016
	c-1.506-1.493-3.032-2.967-4.507-4.491c-0.479-0.496-0.966-0.674-1.648-0.671c-5.081,0.028-10.161,0.017-15.242,0.013
	C40.313,51.25,39.949,51.217,39.586,51.199z"/>
<path fill-rule="evenodd" clip-rule="evenodd" fill="#D5D5D5" d="M42.78,88.979c-0.011-0.046-0.012-0.093-0.004-0.14
	c4.489-0.013,8.979-0.03,13.469-0.038c3.293-0.006,6.586-0.005,9.879,0.001c0.581,0.001,1.136-0.024,1.487-0.587
	c0.17-0.044,0.271-0.023,0.176,0.185c-0.356,0.441-0.809,0.638-1.385,0.637c-7.776-0.009-15.553-0.008-23.328-0.011
	C42.976,89.026,42.878,88.996,42.78,88.979z"/>
<path fill-rule="evenodd" clip-rule="evenodd" fill="#D5D5D5" d="M32.584,50.996c0.004,0.063,0.006,0.127,0.006,0.191
	c-2.657,0.016-5.313,0.043-7.97,0.043c-5.349,0-10.698-0.014-16.047-0.022c0.255-0.417,0.663-0.195,0.986-0.196
	C17.234,50.995,24.91,50.998,32.584,50.996z"/>
<path fill-rule="evenodd" clip-rule="evenodd" fill="#C8C8C8" d="M44.186,99.397c0,0.063,0.002,0.124,0.008,0.186
	c-7.007,0.008-14.013,0.016-21.02,0.023c0.104-0.3,0.375-0.242,0.588-0.242C30.569,99.371,37.377,99.385,44.186,99.397z"/>
<path fill-rule="evenodd" clip-rule="evenodd" fill="#C7C7C7" d="M42.099,72.406c-2.081-0.554-4.18-0.451-6.284-0.175
	c-1.305,0.224-2.62,0.061-3.93,0.101c-0.754,0.022-1.512-0.026-2.252,0.167c-2.216-0.279-4.431-0.273-6.646,0.037
	c-0.121-0.025-0.211-0.092-0.271-0.2c0.41-0.47,0.958-0.537,1.535-0.537c5.418,0.002,10.836,0,16.254,0.002
	C41.11,71.801,41.708,71.835,42.099,72.406z"/>
<path fill-rule="evenodd" clip-rule="evenodd" fill="#C5C5C5" d="M67.994,100.611c-0.491-0.817-1.207-1.046-2.149-1.028
	c-2.884,0.053-5.769,0.015-8.652,0.025c-0.316,0.001-0.669-0.126-0.943,0.156c-0.247,0-0.365-0.166-0.464-0.357
	c3.609-0.016,7.22-0.051,10.829-0.034C67.357,99.377,67.931,99.758,67.994,100.611z"/>
<path fill-rule="evenodd" clip-rule="evenodd" fill="#D0D0D0" d="M34.978,88.785c0.019,0.063,0.024,0.129,0.016,0.195
	c-3.773,0.016-7.546,0.032-11.319,0.044c-0.193,0-0.405,0.001-0.501-0.23C27.108,88.791,31.042,88.788,34.978,88.785z"/>
<path fill-rule="evenodd" clip-rule="evenodd" fill="#F3F3F3" d="M24.19,116.194c-0.202,0.347-0.557,0.125-0.826,0.222
	c-0.971-0.327-1.279-1.038-1.158-1.999c0.131,0.057,0.263,0.112,0.394,0.169C23.469,114.788,24.018,115.305,24.19,116.194z"/>
<path fill-rule="evenodd" clip-rule="evenodd" fill="#BABABA" d="M66.785,127.01c-0.017-0.052-0.021-0.104-0.01-0.156
	c0.848,0.171,1.332,0.726,1.405,1.547c0.065,0.722-0.196,1.354-0.949,1.654c-0.034-0.042-0.068-0.084-0.103-0.127
	c-0.02-0.209,0.078-0.382,0.188-0.541c0.47-0.682,0.363-1.273-0.246-1.812C66.91,127.434,66.696,127.29,66.785,127.01z"/>
<path fill-rule="evenodd" clip-rule="evenodd" fill="#C1C1C1" d="M23.579,75.019c0,0.08-0.001,0.159-0.002,0.239
	c-1.505-0.465-1.87-1.703-0.859-2.922c0.046,0.043,0.091,0.087,0.133,0.134C22.574,73.467,22.844,74.31,23.579,75.019z"/>
<path fill-rule="evenodd" clip-rule="evenodd" fill="#D0D0D0" d="M23.01,85.994c-0.896,1.196-0.868,1.619,0.187,2.815
	c-0.79-0.171-0.996-0.777-1.019-1.458C22.157,86.744,22.286,86.171,23.01,85.994z"/>
<path fill-rule="evenodd" clip-rule="evenodd" fill="#C5C5C5" d="M23.197,99.592c-0.662,0.703-1.131,1.445-0.499,2.415
	c-0.651-0.172-0.576-0.712-0.516-1.163C22.261,100.251,22.467,99.689,23.197,99.592z"/>
<path fill-rule="evenodd" clip-rule="evenodd" fill="#A3A3A3" d="M67.787,88.4c-0.059-0.062-0.117-0.124-0.176-0.185
	c0.547-0.597,0.074-1.287,0.174-1.925C68.414,86.993,68.373,87.696,67.787,88.4z"/>
<path fill-rule="evenodd" clip-rule="evenodd" fill="#C5C5C5" d="M67.581,102.313c0.065-0.591,0.482-1.1,0.399-1.725
	C68.484,101.311,68.067,101.819,67.581,102.313z"/>
<path fill-rule="evenodd" clip-rule="evenodd" fill="#FEFEFE" d="M94.718,63.201c2.11,0.01,3.86,1.799,3.826,3.912
	c-0.033,2.085-1.756,3.815-3.817,3.833c-2.1,0.02-3.874-1.755-3.874-3.874C90.853,64.941,92.601,63.19,94.718,63.201z"/>
<path fill-rule="evenodd" clip-rule="evenodd" fill="#FEFEFE" d="M73.596,54.196c-0.21,0.166-0.214,0.4-0.207,0.635
	c0.078,2.753-0.17,5.511,0.136,8.26c0.023,0.213,0.048,0.44-0.22,0.454c-0.338,0.017-0.297-0.284-0.329-0.505
	c0.486-0.147,0.27-0.552,0.27-0.835c0.014-6.23,0-12.459,0.025-18.689c0.002-0.689-0.178-0.91-0.886-0.897
	c-1.93,0.033-3.861-0.017-5.792-0.033c0.01-0.057,0.011-0.115,0.001-0.172c0.277-1.107,0.654-2.146,1.637-2.861
	c1.402-1.02,3.268-1.01,4.628,0.061c1.407,1.106,1.87,3.025,1.125,4.665c-0.135,0.297-0.272,0.593-0.408,0.89
	c-0.202,2.355-0.047,4.715-0.082,7.072c-0.01,0.591-0.107,1.193,0.088,1.777C73.563,54.079,73.567,54.138,73.596,54.196z"/>
<path fill-rule="evenodd" clip-rule="evenodd" fill="#333333" d="M73.581,54.017c-0.234-0.159-0.191-0.406-0.192-0.633
	c-0.003-2.525-0.002-5.051,0-7.577c0-0.229-0.03-0.472,0.187-0.64C73.577,48.118,73.579,51.067,73.581,54.017z"/>
<path fill-rule="evenodd" clip-rule="evenodd" fill="#333333" d="M62.404,56.384c-1.573-1.582-3.16-3.152-4.713-4.755
	c-0.45-0.464-0.913-0.662-1.572-0.66c-5.495,0.016-10.992-0.006-16.487-0.017C41.107,48,41.107,48,44.346,48
	c4.154,0,8.31-0.002,12.465,0.003c0.396,0,0.793,0.042,1.19,0.064l-0.033,0.09c2.213,2.051,4.285,4.245,6.427,6.368
	c0.159,0.158,0.454,0.345,0.142,0.634C63.753,55.442,63.122,55.987,62.404,56.384z"/>
<path fill-rule="evenodd" clip-rule="evenodd" fill="#BABABA" d="M64.536,55.16c0.133-0.472-0.294-0.624-0.524-0.861
	c-2.006-2.055-4.026-4.095-6.043-6.14c0.154,0.032,0.364,0.011,0.455,0.105c2.115,2.182,4.38,4.218,6.363,6.528
	C64.819,54.994,64.752,55.128,64.536,55.16z"/>
<path fill-rule="evenodd" clip-rule="evenodd" fill="#333333" d="M62.125,78.445c-2.259,0.171-4.522,0.022-6.782,0.08
	c-0.649,0.017-0.551-0.416-0.551-0.807c-0.001-3.131-0.001-6.262,0-9.393c0-4.197,0.001-8.394,0.004-12.591
	c0-0.062,0.024-0.124-0.012,0.047c1.406,1.282,2.908,2.653,4.41,4.023c-3.838,6.081-2.897,13.244,2.373,18.084
	C61.761,78.065,61.939,78.259,62.125,78.445z"/>
<path fill-rule="evenodd" clip-rule="evenodd" fill="#333333" d="M66.785,127.01c1.411,0.971,1.513,1.835,0.344,2.918
	c-0.498,0.024-0.995,0.068-1.493,0.069c-6.753,0.012-13.507,0.019-20.26,0.025c-2.133-0.767-4.134-1.818-6.147-2.844
	c0.351-0.293,0.765-0.137,1.145-0.138C49.177,127.022,57.981,127.018,66.785,127.01z"/>
<path fill-rule="evenodd" clip-rule="evenodd" fill="#FEFEFE" d="M29.559,72.434c0.068-0.233,0.162-0.433,0.458-0.43
	c1.856,0.017,3.712,0.028,5.569,0.052c0.077,0.001,0.153,0.114,0.229,0.174c0.231,0.915,0.208,1.882,0.57,2.77
	c-0.427,0.381-0.942,0.174-1.413,0.184c-1.415,0.03-2.832-0.024-4.245,0.029c-0.534,0.02-0.762-0.202-0.917-0.632
	C29.3,73.916,29.126,73.21,29.559,72.434z"/>
<path fill-rule="evenodd" clip-rule="evenodd" fill="#333333" d="M24.19,116.194c-0.53-0.536-1.06-1.072-1.59-1.608
	c-0.029-0.81,0.458-1.117,1.17-1.178c0.364-0.03,0.731-0.013,1.098-0.013c13.975-0.005,27.95-0.009,41.925-0.014
	c0.823,0.247,1.229,0.832,1.102,1.652c-0.129,0.827-0.713,1.233-1.561,1.242c-0.566,0.006-1.132,0.042-1.698,0.042
	c-13.021,0.003-26.042,0.002-39.064,0.001C25.108,116.319,24.639,116.37,24.19,116.194z"/>
<path fill-rule="evenodd" clip-rule="evenodd" fill="#333333" d="M29.559,72.434c0.084,0.715,0.169,1.431,0.253,2.146
	c-0.069,0.568-0.511,0.407-0.842,0.41c-1.797,0.018-3.594,0.021-5.391,0.028c-1.273-0.562-1.491-1.323-0.728-2.55
	c0.457-0.298,0.951-0.428,1.501-0.421c1.426,0.016,2.852,0.009,4.278,0.002C29.001,72.048,29.369,72.016,29.559,72.434z"/>
</svg>
