<?xml version="1.0" encoding="utf-8"?>
<!-- Generator: Adobe Illustrator 16.0.1, SVG Export Plug-In . SVG Version: 6.00 Build 0)  -->
<!DOCTYPE svg PUBLIC "-//W3C//DTD SVG 1.1//EN" "http://www.w3.org/Graphics/SVG/1.1/DTD/svg11.dtd">
<svg version="1.1" id="Слой_1" xmlns="http://www.w3.org/2000/svg" xmlns:xlink="http://www.w3.org/1999/xlink" x="0px" y="0px"
	 width="195.748px" height="121.104px" viewBox="0 0 195.748 121.104" enable-background="new 0 0 195.748 121.104"
	 xml:space="preserve">
<path fill-rule="evenodd" clip-rule="evenodd" fill="#333333" d="M64.25,0.054c40.666,0,81.334,0,122,0
	c8.236,2.036,9.364,3.5,9.498,12.332c0.001,20.193,0.001,40.38,0.001,60.561c-0.222,10.267-3.965,14.066-14.319,14.131
	c-18.781,0.118-37.564,0.104-56.346-0.023c-3.961-0.026-6.869,1.113-9.584,4.074c-8.424,9.189-17.807,17.414-26.793,26.041
	c-2.771,2.659-4.832,2.76-8.539,3.529c-3.084,0.43-6.251,0.355-9.376-0.206c-10.667-3.521-24.546-2.489-36.516-4.293
	c-9.194-1.386-18.451-2.401-27.726-3.22c-5.72-0.504-8.224-3.377-8.271-9.204c-0.082-9.994,0-19.988-0.032-29.983
	C-1.769,69.201,0.2,66.18,4.7,64.92c1.453-0.406,2.829-1.016,4.015-1.966c12.021-9.62,26.01-13.899,41.12-14.822
	c10.009-0.611,19.725-2.855,29.533-4.61c3.817-0.684,7.636-0.914,11.387,0.101c7.502,2.027,9.703,9.04,4.85,15.134
	c-1.706,2.142-3.966,3.536-6.386,4.693c-4.684,2.239-9.601,3.817-14.724,4.581c-3.708,0.553-6.786,2.163-9.793,4.549
	c1.855,0.677,3.52,0.36,5.146,0.361c30.65,0.021,61.3-0.034,91.949,0.078c4.117,0.016,6.9-0.673,8.168-5.251
	c1.174-4.239,4.579-7.007,8.813-8.152c3.396-0.919,4.441-2.878,4.397-6.153c-0.098-7.328-0.058-14.658-0.019-21.987
	c0.017-3.04-0.924-4.916-4.174-5.771c-4.641-1.221-7.821-4.48-9.408-8.951c-1.178-3.317-3.08-4.658-6.638-4.646
	c-24.653,0.089-49.306,0.052-73.959,0.033c-3.199-0.003-5.276,0.789-6.107,4.359c-1.226,5.269-4.759,8.845-10.016,10.129
	c-3.428,0.837-4.646,2.677-4.585,5.974c0.056,3.031-0.991,5.561-4.012,6.862c-5.872,2.53-9.889,0.028-10.049-6.386
	c-0.158-6.327-0.081-12.659-0.037-18.989C54.236,4.823,55.785,2.7,64.25,0.054z"/>
<path fill-rule="evenodd" clip-rule="evenodd" fill="#FEFEFE" d="M64.25,0.054c-6.46,3.36-8.958,8.62-8.442,15.887
	c0.447,6.299,0.024,12.655,0.149,18.983c0.026,1.328-0.993,4.171,1.847,3.436c2.826-0.732,7.101,1.797,8.333-3.096
	c0.237-0.94,0.104-1.994,0.035-2.989c-0.295-4.241-0.641-7.717,5.843-7.55c5.018,0.13,9.122-5.358,9.201-10.788
	c0.043-2.98,0.624-3.902,3.793-3.887c27.321,0.14,54.642,0.109,81.963,0.031c2.533-0.007,3.631,0.256,3.898,3.317
	c0.564,6.48,4.501,10.335,10.974,10.844c3.093,0.242,3.37,1.477,3.342,3.985c-0.108,9.661-0.114,19.325,0.004,28.985
	c0.031,2.554-0.317,3.7-3.379,3.873c-6.245,0.352-10.196,4.422-11,10.868c-0.258,2.067-0.274,3.213-2.956,3.204
	c-35.983-0.11-71.967-0.085-107.95-0.112c-0.267,0-0.532-0.257-1.375-0.69c4.827-3.856,9.272-7.529,15.466-8.464
	c5.264-0.794,10.436-2.096,15.171-4.691c2.658-1.456,5.101-3.158,6.499-5.987c2.244-4.542,0.906-7.752-3.864-9.271
	c-4.442-1.415-8.928-1.042-13.332-0.011c-12.516,2.932-25.287,3.983-38.005,5.49c-11.365,1.346-21.24,6.33-30.309,13.097
	c-1.186,0.885-2.486,2.494-3.632,2.409c-6.727-0.503-6.51,3.741-6.429,8.408c0.159,9.159,0.045,18.324,0.047,27.486
	c0.002,7.196,0.206,7.375,7.402,8.121c18.044,1.871,36.071,3.895,53.929,7.15c3.039,0.554,6.249,0.801,8.775,2.961
	c-23.456,0-46.911-0.035-70.366,0.05c-2.589,0.009-3.763-0.023-3.748-3.403c0.18-38.094,0.178-76.188,0.002-114.281
	c-0.016-3.347,1.114-3.43,3.734-3.418C21.332,0.095,42.791,0.054,64.25,0.054z"/>
<path fill-rule="evenodd" clip-rule="evenodd" fill="#FEFEFE" d="M79.25,121.054c4.25-0.917,7.25-4.042,9.822-7.1
	c8.24-9.795,18.982-17.225,27.182-27.115c1.625-1.958,3.516-1.513,5.414-1.516c19.963-0.032,39.925,0.003,59.887-0.03
	c8.402-0.015,12.082-3.045,13.868-11.214c0.255-0.686,0.53-0.694,0.827-0.025c0,14.29-0.198,28.584,0.13,42.866
	c0.09,3.912-1.171,4.219-4.474,4.208C154.354,121.011,116.803,121.054,79.25,121.054z"/>
<path fill-rule="evenodd" clip-rule="evenodd" fill="#FEA100" d="M124.607,16.648c11.606-0.051,22.015,7.367,25.426,18.121
	c3.494,11.019-0.617,22.865-10.213,29.428c-9.701,6.634-22.54,6.151-31.648-1.021c-1.982-1.562-2.501-2.891-1.626-5.415
	c2.581-7.449,1.469-14.211-5.235-19.106c-2.326-1.699-2.126-3.209-1.227-5.474C104.011,23.294,113.691,16.695,124.607,16.648z"/>
<path fill-rule="evenodd" clip-rule="evenodd" fill="#FEA202" d="M163.383,51.162c-4.177,0.023-7.293-3.068-7.25-7.191
	c0.044-4.117,3.232-7.153,7.404-7.049c3.986,0.1,6.904,3.001,6.992,6.954C170.621,48.028,167.57,51.139,163.383,51.162z"/>
<path fill-rule="evenodd" clip-rule="evenodd" fill="#FEFDFC" d="M129.112,34.24c0.034,0.008-0.446-0.176-0.937-0.202
	c-2.074-0.109-4.896-1.217-5.705,1.397c-0.87,2.813,2.221,3.216,4.053,4.081c6.026,2.848,8.516,6.135,7.449,10.232
	c-0.611,2.352-1.979,4.228-4.224,5.279c-1.565,0.732-2.956,1.411-2.843,3.541c0.076,1.436-0.959,2.036-2.293,2.025
	c-1.016-0.009-2.338-0.195-2.25-1.402c0.244-3.375-2.424-2.928-4.295-3.601c-1.639-0.591-3.02-1.182-2.267-3.557
	c0.727-2.293,1.891-2.306,3.724-1.534c0.899,0.379,1.92,0.57,2.9,0.637c1.977,0.133,4.3,0.495,4.935-2.095
	c0.571-2.332-1.493-3.045-3.132-3.84c-1.641-0.796-3.42-1.364-4.939-2.343c-4.876-3.137-4.98-9.119-0.195-12.364
	c1.631-1.106,3.705-1.636,3.492-4.216c-0.022-0.267,0.215-0.678,0.451-0.822c1.227-0.743,3.618-0.598,3.5,0.048
	c-0.877,4.779,8.817,2.227,5.585,8.294C131.468,35.028,130.592,34.763,129.112,34.24z"/>
</svg>
